<svg xmlns="http://www.w3.org/2000/svg" width="10.783" height="14.596" viewBox="0 0 10.783 14.596">
  <g id="egg" transform="translate(-1738.897 115.147)">
    <path id="Path_3989" data-name="Path 3989" d="M45.583,15.448a6.122,6.122,0,0,1-.8-.055A5.346,5.346,0,0,1,41.647,13.8a6.059,6.059,0,0,1-1.386-2.6,9.131,9.131,0,0,1,.171-5.621,9.137,9.137,0,0,1,1.9-3.192,4.984,4.984,0,0,1,1.648-1.244,3.871,3.871,0,0,1,2.529-.132,4.443,4.443,0,0,1,2.133,1.527A7.256,7.256,0,0,1,49.95,4.82a11.061,11.061,0,0,1,.619,2.295c.033.237.048.5.064.772l.019.335c.318,4.651-2.2,6.236-2.3,6.3a3.761,3.761,0,0,1-.691.448,4.5,4.5,0,0,1-2.074.476M45.45,1.6a3.234,3.234,0,0,0-1.186.23,4.139,4.139,0,0,0-1.38,1.061,8.357,8.357,0,0,0-1.743,2.922,8.4,8.4,0,0,0-.162,5.162,5.34,5.34,0,0,0,1.211,2.305,4.582,4.582,0,0,0,2.7,1.366,4.047,4.047,0,0,0,2.43-.345,3.379,3.379,0,0,0,.6-.391c.131-.085,2.271-1.472,1.987-5.64l-.02-.345c-.014-.253-.027-.492-.057-.709a10.371,10.371,0,0,0-.57-2.112,6.558,6.558,0,0,0-1.175-2.079,3.764,3.764,0,0,0-1.78-1.3A3.036,3.036,0,0,0,45.45,1.6" transform="translate(1699 -116)"/>
    <path id="Path_3990" data-name="Path 3990" d="M42.626,7.828a.369.369,0,0,1-.056,0,.376.376,0,0,1-.315-.427,7.727,7.727,0,0,1,1.892-3.945.375.375,0,0,1,.562.5A7.039,7.039,0,0,0,43,7.509a.375.375,0,0,1-.371.319" transform="translate(1699 -116)"/>
  </g>
</svg>
