<svg xmlns="http://www.w3.org/2000/svg" width="38.886" height="40.087" viewBox="0 0 38.886 40.087"><defs><style>.a{fill:#d8d8d8;}</style></defs><g transform="translate(-1698.651 -132.432)"><g transform="translate(1698.651 132.432)"><rect class="a" width="37.247" height="38.448" rx="1.466" transform="translate(0.82 0.82)"/><path d="M1734.314,172.519h-32.441a3.226,3.226,0,0,1-3.222-3.222V135.654a3.225,3.225,0,0,1,3.222-3.222h32.441a3.226,3.226,0,0,1,3.223,3.222V169.3A3.226,3.226,0,0,1,1734.314,172.519Zm-32.441-38.449a1.586,1.586,0,0,0-1.583,1.583V169.3a1.586,1.586,0,0,0,1.583,1.583h32.441a1.587,1.587,0,0,0,1.585-1.583V135.654a1.587,1.587,0,0,0-1.585-1.583Z" transform="translate(-1698.651 -132.432)"/></g><path d="M1707.006,171.031a.819.819,0,0,1-.819-.819V133.764a.819.819,0,1,1,1.639,0v36.448A.82.82,0,0,1,1707.006,171.031Z" transform="translate(4.814 0.328)"/><g transform="translate(1703.646 147.646)"><g transform="translate(7.537 0.015)"><path d="M1710.593,143.614c-.061.015-.121.029-.18.048-1.555.441-2.456,1.719-2.292,2.591a1.018,1.018,0,0,0,.479.682,2.6,2.6,0,0,0,1.95.226l.18-.046c1.555-.442,2.457-1.721,2.293-2.592a1.019,1.019,0,0,0-.479-.682,2.6,2.6,0,0,0-1.95-.226m-.406-1.755c2.23-.515,4.261.492,4.607,2.33.359,1.911-1.241,4-3.573,4.659-.088.025-.177.047-.266.067-2.23.515-4.26-.492-4.606-2.33-.359-1.911,1.241-4,3.573-4.657Q1710.054,141.889,1710.186,141.859Z" transform="translate(-1706.298 -141.725)"/></g><path d="M1705.965,147.15a2.574,2.574,0,0,0,1.945-.149.95.95,0,0,0,.469-.623,1.81,1.81,0,0,0-.4-1.375,3.712,3.712,0,0,0-1.839-1.308c-.066-.023-.133-.043-.2-.061a2.577,2.577,0,0,0-1.944.151.943.943,0,0,0-.469.621,1.8,1.8,0,0,0,.4,1.375,3.728,3.728,0,0,0,1.837,1.309c.067.021.134.041.2.059m-.467,1.74c-.1-.026-.2-.056-.293-.087-2.312-.757-3.851-2.9-3.438-4.782.4-1.8,2.438-2.717,4.641-2.127.1.026.2.056.293.087,2.312.759,3.851,2.9,3.438,4.782C1709.744,148.568,1707.7,149.482,1705.5,148.89Z" transform="translate(-1701.699 -141.716)"/><path d="M1704,152.688a.821.821,0,0,1-.736-1.183c2.747-5.552,5.1-6.27,5.36-6.334a.819.819,0,0,1,.415,1.585c-.082.028-1.962.739-4.305,5.477A.819.819,0,0,1,1704,152.688Z" transform="translate(-1700.754 -139.524)"/><path d="M1712.2,152.688a.818.818,0,0,1-.734-.457c-2.375-4.82-4.292-5.469-4.312-5.475a.83.83,0,0,1-.557-1,.811.811,0,0,1,.97-.58c.26.062,2.634.782,5.367,6.335a.82.82,0,0,1-.372,1.1A.847.847,0,0,1,1712.2,152.688Z" transform="translate(-1698.589 -139.524)"/></g><circle cx="4.806" cy="4.806" r="4.806" transform="translate(1722.299 138.058)"/></g></svg>