<svg xmlns="http://www.w3.org/2000/svg" width="57.962" height="32.647" viewBox="0 0 57.962 32.647"><defs><style>.a{fill:#d8d8d8;}.b{fill-rule:evenodd;}</style></defs><g transform="translate(-1689.944 -276.886)"><path class="a" d="M1744.2,291.305a10.209,10.209,0,0,0-3.217-2.162c-2.693-1.165-5.611-1.654-8.334-2.737-.068-.027-.13-.062-.2-.095a15.58,15.58,0,0,1-3.428.49,16.943,16.943,0,0,1-4.741-.1,4.2,4.2,0,0,1-3.184-3.832,11.327,11.327,0,0,1,.1-3.021c.055-.395.116-.787.18-1.179.026-.156.051-.311.076-.468l.011-.071.007-.065c.01-.085.028-.167.045-.25h-27.087V303.5h5.059a5.2,5.2,0,0,1,.971-2.393,5.847,5.847,0,0,1,2.018-1.9,4.957,4.957,0,0,1,1.378-.481,5.328,5.328,0,0,1,1.895.011,4.685,4.685,0,0,1,2.314,1.235,4.777,4.777,0,0,1,1.312,2.189,3.9,3.9,0,0,1,.144,1.279l-.006.057h19.873a5.139,5.139,0,0,1,.076-.821,3.287,3.287,0,0,1,.242-.719,3.522,3.522,0,0,1,.341-.667,5.89,5.89,0,0,1,1.407-1.428,4.049,4.049,0,0,1,1.4-.625,4.64,4.64,0,0,1,1.366-.163,4.832,4.832,0,0,1,4.087,2.761,7.6,7.6,0,0,1,.572,1.661h4.9c.011-.023.016-.041.027-.064.054-.1.128-.194.184-.294.018-.038.026-.078.047-.113.109-.142.219-.283.327-.425a2.152,2.152,0,0,1,.4-.306V292.007C1744.567,291.781,1744.377,291.546,1744.2,291.305Zm-33,1.309a7.249,7.249,0,0,1-4.711.719,5.5,5.5,0,0,1-3.228-1.551c-1.677-1.838-1.432-4.325-.46-6.433.72-1.565,2.182-3.327,3.964-3.669a3.334,3.334,0,0,1,2.764.685c.037,0,.072,0,.109,0a2.216,2.216,0,0,1,1.252.613,1.9,1.9,0,0,1,.152.175,2.138,2.138,0,0,1,.651,1.518c.1.116.2.232.3.35a7.357,7.357,0,0,1,1.5,2.348A4.559,4.559,0,0,1,1711.2,292.614Z" transform="translate(1.865 0.385)"/><g transform="translate(1689.944 276.886)"><path class="b" d="M1746.777,290.984a5.92,5.92,0,0,0-3.006-2.141l-7.727-2.447-4.748-6.93a5.8,5.8,0,0,0-4.891-2.58h-27.414a3.426,3.426,0,0,0-3.426,3.425v.576h-4.708a.915.915,0,0,0,0,1.83h5.619a.914.914,0,0,0,.914-.914v-1.49a1.6,1.6,0,0,1,1.6-1.6H1722.5v5.953a3.426,3.426,0,0,0,3.424,3.426h9.421l7.89,2.5a4.034,4.034,0,0,1,2.865,3.916v4.2h-3.655a.91.91,0,1,0,0,1.82h3.655v.685a1.6,1.6,0,0,1-1.6,1.6h-2.972a5.63,5.63,0,0,0-11.052,0h-18.484a5.63,5.63,0,0,0-11.052,0h-1.951a1.6,1.6,0,0,1-1.6-1.6v-.685h2.636a.911.911,0,0,0,0-1.821h-2.636v-4.952a.914.914,0,0,0-.914-.914H1694.6a.915.915,0,0,0,0,1.83h.962v6.551a3.426,3.426,0,0,0,3.426,3.426h1.9a5.628,5.628,0,0,0,11.156,0h18.364a5.628,5.628,0,0,0,11.157,0h2.912a3.426,3.426,0,0,0,3.425-3.426V294.51A5.909,5.909,0,0,0,1746.777,290.984Zm-21.984-5.195a1.591,1.591,0,0,1-.468-1.128v-5.955h2.081a3.976,3.976,0,0,1,3.391,1.783l3.953,5.769h-7.827a1.6,1.6,0,0,1-1.131-.47Zm-15.629,20.788a3.811,3.811,0,1,1,1.115-2.694A3.812,3.812,0,0,1,1709.164,306.577Zm29.522,0a3.809,3.809,0,1,1,1.115-2.694,3.808,3.808,0,0,1-1.115,2.694Z" transform="translate(-1689.944 -276.886)"/><g transform="translate(13.004 4.229)"><path class="b" d="M1711.3,283.045a.894.894,0,0,0-.146-1.049,7.007,7.007,0,0,0-5.024-2.123h0a7,7,0,0,0,0,14h.024a6.978,6.978,0,0,0,4.513-1.666l.116-.1a7,7,0,0,0,2.355-5.23v-.051h0a.9.9,0,0,0-.605-.867,2.137,2.137,0,0,1-1.3-2.728c.021-.059.044-.117.071-.175Zm0,4.313a5.187,5.187,0,0,1-5.164,4.711h0a5.2,5.2,0,0,1,0-10.394h0a5.154,5.154,0,0,1,3.308,1.2c-.018.065-.037.129-.052.2a3.924,3.924,0,0,0,1.908,4.3Z" transform="translate(-1699.133 -279.874)"/><path class="b" d="M1705.222,283.445l-.439-.553a.907.907,0,0,0-1.423,1.124h0l.439.553a.906.906,0,0,0,1.422-1.124h0Z" transform="translate(-1697.459 -278.765)"/><path class="b" d="M1703.668,285.335l-.6-.369a.91.91,0,1,0-.952,1.551h0l.6.371a.91.91,0,0,0,.954-1.55h0Z" transform="translate(-1698.077 -277.816)"/><path class="b" d="M1706.589,285.179a.909.909,0,0,0-1.271.2l-.418.57a.908.908,0,0,0,1.465,1.074l.417-.569a.907.907,0,0,0-.191-1.269Z" transform="translate(-1696.812 -277.745)"/></g><path class="b" d="M1705.531,293.209a.911.911,0,0,0,.908.911h16.141a.911.911,0,0,0,0-1.821h-16.14a.91.91,0,0,0-.91.91Z" transform="translate(-1683.474 -270.487)"/><path class="b" d="M1701.984,295.321h-.148a.91.91,0,1,0,0,1.82h.148a.91.91,0,0,0,0-1.82Z" transform="translate(-1685.385 -269.233)"/><path class="b" d="M1722.847,295.321h-.143a.91.91,0,1,0,0,1.82h.149a.91.91,0,1,0,0-1.82h-.006Z" transform="translate(-1676.722 -269.233)"/><path class="b" d="M1696.847,284.845a.915.915,0,0,0-.914-.914h-3.746a.915.915,0,1,0,0,1.83h3.746a.916.916,0,0,0,.914-.916Z" transform="translate(-1689.393 -273.961)"/></g></g></svg>