<svg xmlns="http://www.w3.org/2000/svg" width="41.162" height="41.162" viewBox="0 0 41.162 41.162"><defs><style>.a{fill:#d8d8d8;}</style></defs><g transform="translate(-1699.642 -458.616)"><path class="a" d="M1719.773,497.742c-16.451,0-19.6-19.2-19.6-19.2s2.678-19.545,19.6-19.2v38.392Z" transform="translate(0.482 0.663)"/><path d="M1720.222,458.616A20.581,20.581,0,1,0,1740.8,479.2,20.6,20.6,0,0,0,1720.222,458.616Zm18.272,21.706a18.207,18.207,0,0,1-3.5,9.688,33.9,33.9,0,0,0-4.148-1.556,38.686,38.686,0,0,0,.957-8.132Zm-17.146-11.19v-8.206a18.176,18.176,0,0,1,3.971.674,43.669,43.669,0,0,1,2.583,6.8A31.828,31.828,0,0,1,1721.348,469.132Zm8.165,8.939h-8.165v-6.653a33.539,33.539,0,0,0,7.121-.823A41.408,41.408,0,0,1,1729.513,478.072Zm-1.218-15.311a18.341,18.341,0,0,1,5.194,3.831,31.277,31.277,0,0,1-3.421,1.237A46.667,46.667,0,0,0,1728.295,462.76Zm-6.947,24.258v-6.7h8.2a36.645,36.645,0,0,1-.874,7.542A34.188,34.188,0,0,0,1721.348,487.019Zm7.092,8.539a38.414,38.414,0,0,0,1.817-4.929,31.455,31.455,0,0,1,3.224,1.182A18.285,18.285,0,0,1,1728.44,495.557Zm-.324-5.511a36.95,36.95,0,0,1-2.734,6.733,18.254,18.254,0,0,1-4.034.689v-8.2A31.593,31.593,0,0,1,1728.115,490.046Zm10.379-11.975h-6.748a43.868,43.868,0,0,0-1.109-8.035A35.112,35.112,0,0,0,1735,468.4,18.193,18.193,0,0,1,1738.494,478.072Zm-28.809,10.705a40.494,40.494,0,0,0-4.043,1.483,18.172,18.172,0,0,1-3.688-9.938h6.7A38.689,38.689,0,0,0,1709.685,488.777Zm1.212-8.455h8.2v6.742a38.547,38.547,0,0,0-7.256,1.107A36.618,36.618,0,0,1,1710.9,480.322Zm-.62,10.619a37.995,37.995,0,0,0,1.726,4.614,18.305,18.305,0,0,1-4.816-3.511C1708.177,491.644,1709.213,491.274,1710.277,490.942Zm-8.323-12.87a18.166,18.166,0,0,1,3.684-9.932,43.214,43.214,0,0,0,4.257,1.546,43.672,43.672,0,0,0-1.2,8.386Zm17.142,11.249v8.147a18.2,18.2,0,0,1-4.032-.689,36.891,36.891,0,0,1-2.642-6.437A36.45,36.45,0,0,1,1719.1,489.321Zm0-17.976v6.727h-8.163a41.5,41.5,0,0,1,1.117-7.79A38.154,38.154,0,0,0,1719.1,471.345Zm-11.912-4.994a18.213,18.213,0,0,1,4.967-3.591,47.76,47.76,0,0,0-1.678,4.763C1709.377,467.187,1708.274,466.792,1707.184,466.351Zm11.912-5.425v8.157a35.973,35.973,0,0,1-6.464-.966,43.767,43.767,0,0,1,2.495-6.517A18.138,18.138,0,0,1,1719.1,460.926Z" transform="translate(0 0)"/></g></svg>