<svg xmlns="http://www.w3.org/2000/svg" width="38.01" height="40.846" viewBox="0 0 38.01 40.846"><defs><style>.a{fill:#d8d8d8;}</style></defs><g transform="translate(-1700.315 -315.309)"><g transform="translate(1705.269 315.309)"><path class="a" d="M1727.93,315.809h-24.491l5.9,34.218h24.493Zm-1.573,18.651a8.47,8.47,0,0,1-5.721,5.45,7.486,7.486,0,0,1-9.07-6.692,7.116,7.116,0,0,1,.7-3.361,4.1,4.1,0,0,1,.5-1.59,5.927,5.927,0,0,1,3.341-2.238c2.281-.835,5.253-.971,7.306.536a2.239,2.239,0,0,1,.842,2.778c.006,0,.006.017-.007.072-.028.121-.076.236-.1.357-.019.079-.032.159-.051.238a6.328,6.328,0,0,0-.015.733c.006.143.03.289.034.432,0-.093-.006-.123-.008-.179-.023-.17-.017-.315,0,0,0,.028.006.057.009.081.027.121.057.242.093.361.011.038.025.076.038.113s.04.083.06.119l.015.025.038.025A2.183,2.183,0,0,1,1726.357,334.46Z" transform="translate(-1702.494 -314.865)"/><path d="M1734.272,351.415H1709.78a.948.948,0,0,1-.931-.784l-5.9-34.218a.943.943,0,0,1,.931-1.1h24.493a.947.947,0,0,1,.931.786l5.9,34.216a.944.944,0,0,1-.931,1.1Zm-23.7-1.888h22.574l-5.568-32.33H1705Z" transform="translate(-1702.939 -315.309)"/></g><path d="M1710.556,356.032a.947.947,0,0,1-.931-.784l-6.673-38.7a.946.946,0,0,1,.772-1.091.958.958,0,0,1,1.092.77l6.673,38.7a.945.945,0,0,1-.771,1.091A.957.957,0,0,1,1710.556,356.032Z" transform="translate(2.33 0.123)"/><path d="M1701.261,356.032a.786.786,0,0,1-.115-.008.942.942,0,0,1-.823-1.052l4.736-38.7a.952.952,0,0,1,1.052-.821.939.939,0,0,1,.821,1.05l-4.734,38.7A.947.947,0,0,1,1701.261,356.032Z" transform="translate(0 0.123)"/><path d="M1723.525,356.032a.946.946,0,0,1-.929-.784l-6.673-38.7a.945.945,0,0,1,.77-1.091.956.956,0,0,1,1.092.77l6.675,38.7a.947.947,0,0,1-.772,1.091A.932.932,0,0,1,1723.525,356.032Z" transform="translate(13.852 0.123)"/><g transform="translate(1713.106 324.622)"><path d="M1723.668,327.813a2.774,2.774,0,0,1-1.341-1.01,2.814,2.814,0,0,1-.44-2.217,2.864,2.864,0,0,1,.181-.538,1.007,1.007,0,0,0-.162-1.193,8.629,8.629,0,1,0-1.124,13l.51-.4a8.618,8.618,0,0,0,3.059-6.624A1.025,1.025,0,0,0,1723.668,327.813Zm-3.7-3.984c-.028.1-.057.2-.079.3a4.779,4.779,0,0,0,2.391,5.282,6.595,6.595,0,1,1-2.311-5.586Z" transform="translate(-1707.089 -320.241)"/><g transform="translate(4.476 4.73)"><path d="M1712.686,323.133a1.023,1.023,0,0,0-1.435-.168v0a1.019,1.019,0,0,0-.168,1.433l.545.693a1.03,1.03,0,0,0,.684.381h.121a1.019,1.019,0,0,0,.633-.213l0,0a1.021,1.021,0,0,0,.166-1.435Z" transform="translate(-1708.213 -322.746)"/><path d="M1711.8,325.5l-.75-.463-.055-.032a1.025,1.025,0,1,0-1.02,1.779l.751.463a1.025,1.025,0,0,0,1.073-1.747Z" transform="translate(-1709.459 -320.859)"/><path d="M1714.466,325.237a1.023,1.023,0,0,0-1.424.219l-.523.712a1.019,1.019,0,1,0,1.645,1.2l.523-.712A1.024,1.024,0,0,0,1714.466,325.237Z" transform="translate(-1706.917 -320.706)"/></g></g><path d="M1706.695,335.455h-5.146a.944.944,0,0,1,0-1.888h5.146a.944.944,0,1,1,0,1.888Z" transform="translate(0.257 16.219)"/></g></svg>