<svg xmlns="http://www.w3.org/2000/svg" width="38.541" height="41.231" viewBox="0 0 38.541 41.231"><defs><style>.a{fill:#d8d8d8;}</style></defs><g transform="translate(-1696.723 -238.027)"><g transform="translate(1698.348 261.671)"><rect class="a" width="9.368" height="4.036" transform="translate(3.738 7.258) rotate(45)"/><path d="M1705.478,270.662a1.818,1.818,0,0,1-1.294-.536l-5.771-5.769a1.834,1.834,0,0,1,0-2.591l2.058-2.058a1.835,1.835,0,0,1,2.589,0l5.771,5.771a1.833,1.833,0,0,1,0,2.591l-2.058,2.056A1.819,1.819,0,0,1,1705.478,270.662Zm-3.713-9.781a.122.122,0,0,0-.086.037l-2.056,2.058a.118.118,0,0,0,0,.172l5.769,5.769h0a.121.121,0,0,0,.172,0l2.058-2.056a.121.121,0,0,0,0-.172l-5.77-5.771A.122.122,0,0,0,1701.765,260.882Z" transform="translate(-1697.878 -253.075)"/><g transform="translate(5.667)"><path d="M1708.413,266.771h0a.856.856,0,0,1-.6-.25l-5.653-5.654a.859.859,0,0,1,0-1.21l2.17-2.169c1.464-1.509,5.325-3.837,9.525-1.935h7.734a2.2,2.2,0,0,1,2.021,3.077l3.72-2.806a2.5,2.5,0,0,1,3.476.046h0a2.5,2.5,0,0,1,0,3.523l-6.567,5.236a3.013,3.013,0,0,1-2.135.849h-12.044l-1.039,1.041A.854.854,0,0,1,1708.413,266.771Zm-4.445-6.509,4.445,4.446.686-.686a.853.853,0,0,1,.6-.25h12.4a1.423,1.423,0,0,0,1-.413l6.565-5.236a.783.783,0,0,0-.072-1.042h0a.853.853,0,0,0-1.252-.2.942.942,0,0,1-.09.077l-5.177,3.828a3.146,3.146,0,0,1-2.162.869h-5.627a1.1,1.1,0,0,1-1-1.242h0a1.121,1.121,0,0,1,.969-1.027h4.782c2,0,2.044-1.354,2.044-1.627a.494.494,0,0,0-.494-.494h-7.924a.843.843,0,0,1-.37-.084c-4.214-2.024-7.606,1.366-7.749,1.511Z" transform="translate(-1701.907 -254.838)"/></g></g><path d="M1734.393,254.556h-36.8a.87.87,0,0,1,0-1.74h36.8a.87.87,0,1,1,0,1.74Z" transform="translate(0 6.011)"/><g transform="translate(1698.952 241.938)"><path class="a" d="M1731.287,255.866a16.29,16.29,0,0,0-32.371,0Z" transform="translate(-1698.061 -240.561)"/><path d="M1731.535,256.968h-32.373a.854.854,0,0,1-.848-.951,17.144,17.144,0,0,1,34.069,0,.854.854,0,0,1-.848.951Zm-31.386-1.709h30.4a15.437,15.437,0,0,0-30.4,0Z" transform="translate(-1698.308 -240.808)"/></g><path d="M1711.15,243.05a2.511,2.511,0,1,1,2.512-2.512A2.516,2.516,0,0,1,1711.15,243.05Zm0-3.314a.8.8,0,1,0,.8.8A.8.8,0,0,0,1711.15,239.736Z" transform="translate(4.843 0)"/></g></svg>