<svg xmlns="http://www.w3.org/2000/svg" width="139.99" height="155.605" viewBox="0 0 139.99 155.605">
  <g id="Group_499" data-name="Group 499" transform="translate(-755.58 -312.778)">
    <g id="Group_501" data-name="Group 501" transform="translate(755.58 312.778)">
      <path id="Path_990" data-name="Path 990" d="M888.9,353.58a5.473,5.473,0,0,1-3.615-5.181,5.965,5.965,0,0,1,.115-1.275l.014-.065a4.05,4.05,0,0,1,.284-.855,9.874,9.874,0,0,0-1.6-11.244l-.087-.091a40.775,40.775,0,0,0-11.575-8.28l-.212-.142-.335-.167c-.152-.076-.321-.154-.492-.23-.112-.066-.238-.135-.376-.2l-.234-.114-.266-.109a8.781,8.781,0,0,0-.94-.342c-.134-.052-.3-.112-.489-.171-.077-.028-.154-.06-.232-.09-.235-.092-.47-.181-.706-.263-.157-.059-.305-.11-.454-.16l-.031-.01a8.787,8.787,0,0,0-.912-.3c-.135-.046-.271-.087-.409-.122l-.1-.03-.323-.106-.115-.023c-.163-.052-.389-.119-.657-.18l-1.078-.27-.831-.276h-.517l-.06-.013c-.333-.073-.667-.143-1.014-.2-.124-.025-.275-.052-.448-.075l-.073-.012c-.447-.074-.935-.15-1.467-.206-.15-.026-.325-.051-.521-.069-.238-.026-.476-.043-.715-.058l-.144-.008-.373-.047h-.374l-.39-.028c-.816-.058-1.593-.058-2.279-.058-1.154,0-2.33.055-3.516.164a39.776,39.776,0,0,0-9.753-6.257,40.5,40.5,0,0,0-43.25,6.167c-.665-.043-1.343-.074-2.032-.074A40.792,40.792,0,0,0,780.4,400.793V425.1h-3.528a9.852,9.852,0,1,0,0,19.7h15.474a9.854,9.854,0,0,0-.919,4.428,9.652,9.652,0,0,0,3.111,6.865,45.271,45.271,0,0,0,47.673,9.1,44.571,44.571,0,0,0,14.3-9.133,9.772,9.772,0,0,0,2.162-11.262h15.6a9.852,9.852,0,1,0,0-19.7h-3.528v-24.2l.712-.178.4-.4c.81-.375,1.559-.767,2.244-1.126.121-.064.26-.142.409-.23.584-.314,1.243-.671,1.931-1.094l.123-.077a7.987,7.987,0,0,0,.759-.521,6.534,6.534,0,0,0,.894-.614c.2-.134.479-.318.786-.556.245-.177.439-.336.568-.442l.11-.075.2-.163c.118-.095.241-.189.364-.284.33-.256.7-.543,1.084-.878.255-.212.577-.485.927-.82.128-.112.257-.229.385-.346.06-.054.118-.11.174-.158l.468-.39.3-.379c.5-.474.923-.941,1.282-1.339.119-.125.239-.257.357-.39l.057-.064.121-.121,1.053-1.229.985-1.313c.123-.141.241-.279.349-.414a9.328,9.328,0,0,0,.593-.838l.045-.056.091-.136a7.1,7.1,0,0,0,.549-.873q.095-.157.18-.318l.04-.061c.227-.348.506-.775.783-1.271.135-.226.316-.536.495-.91.307-.548.6-1.131.916-1.81l.062-.134.059-.147.044-.1c.049-.11.1-.221.147-.337.263-.57.525-1.144.789-1.758l.1-.23.164-.492a40.4,40.4,0,0,0,2.72-14.557v-.238A9.791,9.791,0,0,0,888.9,353.58Z" transform="translate(-755.58 -312.778)" fill="#fff"/>
      <path id="Path_991" data-name="Path 991" d="M797.993,408.149v34.546h-9.551a3.829,3.829,0,1,0,0,7.658h34.287a20.152,20.152,0,0,0,5.636,4.216,19.681,19.681,0,0,0,17.552,0,20.152,20.152,0,0,0,5.636-4.216h34.287a3.829,3.829,0,1,0,0-7.658H876.29V408.106c.215-.086.474-.129.689-.215a1.008,1.008,0,0,1,.344-.086.158.158,0,0,0,.129-.043c.043,0,.129-.043.172-.043.6-.215,1.248-.43,1.85-.688.172-.043.3-.129.473-.172.043-.043.129-.043.172-.086.947-.387,1.85-.86,2.753-1.334.086-.043.215-.129.3-.172.559-.3,1.119-.6,1.678-.946a2.6,2.6,0,0,0,.43-.3c.086-.086.215-.129.3-.215.086-.043.215-.129.3-.172a.938.938,0,0,0,.215-.172c.3-.215.6-.387.86-.6.258-.172.473-.387.731-.559.43-.344.9-.689,1.291-1.033.258-.215.516-.43.774-.688.258-.215.516-.473.774-.688l.172-.215.129-.129a16.567,16.567,0,0,0,1.2-1.248c.172-.172.344-.387.516-.559l.774-.9.387-.516.387-.516c.172-.258.387-.473.559-.688s.3-.473.473-.689a1.5,1.5,0,0,0,.215-.344c.043-.086.086-.129.129-.215.043-.043.043-.129.086-.172.3-.473.6-.9.86-1.376a4.661,4.661,0,0,0,.344-.645c.3-.516.56-1.032.818-1.592.086-.215.172-.387.258-.6.258-.559.516-1.119.775-1.721l.129-.387a34.638,34.638,0,0,0,2.366-12.519v-.3a3.817,3.817,0,0,0-2.581-3.7,11.495,11.495,0,0,1-7.7-10.884,11.918,11.918,0,0,1,.258-2.581,10.175,10.175,0,0,1,.774-2.28,3.861,3.861,0,0,0-.6-4.474,34.537,34.537,0,0,0-10.153-7.184c-.129-.086-.215-.129-.344-.215-.172-.086-.387-.172-.559-.258a1.877,1.877,0,0,1-.3-.172,3.388,3.388,0,0,0-.6-.215c-.172-.043-.3-.129-.473-.172-.387-.129-.774-.3-1.161-.43-.215-.086-.387-.129-.6-.215a3.161,3.161,0,0,0-.6-.172c-.043,0-.043-.043-.086-.043-.129-.043-.3-.086-.43-.129-.215-.043-.387-.129-.6-.172l-1.032-.258c-.172-.043-.344-.086-.473-.129h-.129c-.516-.086-.99-.215-1.506-.3-.086,0-.172-.043-.258-.043-.516-.086-1.033-.172-1.549-.215-.086,0-.172-.043-.258-.043-.345-.043-.689-.043-1.033-.086h-.516a.73.73,0,0,1-.3-.043c-.6-.043-1.248-.043-1.85-.043a33.677,33.677,0,0,0-5.549.473,34.472,34.472,0,0,0-10.2-7.1,34.517,34.517,0,0,0-38.675,6.926c-.344-.043-.645-.086-.99-.129-1.119-.086-2.151-.172-3.1-.172h-.043a34.768,34.768,0,0,0-9.895,68.058Zm51.754,34.546c-.172,0-.344.043-.516.043h0a3.234,3.234,0,0,0-.688.172h0a4.34,4.34,0,0,0-.645.3h-.043a2.757,2.757,0,0,0-.559.43l-.043.043a3.733,3.733,0,0,0-.559.6,11.839,11.839,0,0,1-4.216,3.485,12.169,12.169,0,0,1-5.335,1.248,11.6,11.6,0,0,1-5.334-1.248,12.039,12.039,0,0,1-4.173-3.442,3.717,3.717,0,0,0-.559-.6.042.042,0,0,1-.043-.043,4.864,4.864,0,0,0-.559-.43.042.042,0,0,1-.043-.043,4.349,4.349,0,0,0-.645-.3h-.043a4.022,4.022,0,0,0-.688-.172h0a2.105,2.105,0,0,0-.516-.043h-18.8V425.185a115.98,115.98,0,0,1,13.637-2.667c.129,0,.258-.043.387-.043a4.973,4.973,0,1,0,7.184-.172l-.043-.043a3.261,3.261,0,0,0-.6-.473c3.485-.258,7.1-.43,10.8-.43s7.313.172,10.8.43a7.533,7.533,0,0,0-.6.516,4.989,4.989,0,1,0,8.518,3.527,4.9,4.9,0,0,0-1.333-3.356c.129,0,.258.043.387.043a115.978,115.978,0,0,1,13.637,2.667v17.509Zm-60.96-86.945a26.951,26.951,0,0,1,19.1-7.916c.946,0,1.721.043,2.409.086a21.694,21.694,0,0,1,2.409.344h0a4.2,4.2,0,0,0,.731.043h.043a3.914,3.914,0,0,0,2.624-1.118l.043-.043c.043-.043.086-.043.129-.086a27.347,27.347,0,0,1,9.12-6.625,26.668,26.668,0,0,1,10.97-2.323,26.185,26.185,0,0,1,15.874,5.162,41.266,41.266,0,0,0-3.872,2.022,34.648,34.648,0,0,0-12.82,13.767,38.2,38.2,0,0,0-1.893,4.431,31.223,31.223,0,0,0-1.291,4.646,3.856,3.856,0,0,0,7.572,1.463,27.527,27.527,0,0,1,.99-3.614,26.14,26.14,0,0,1,1.506-3.442,27.306,27.306,0,0,1,9.981-10.755,26.745,26.745,0,0,1,14.025-3.915c.9,0,1.764.043,2.667.129.129,0,.258.043.43.043a3.332,3.332,0,0,0,.688.086c.645.086,1.248.172,1.893.3h0a5.226,5.226,0,0,1,.775.215c.645.172,1.291.3,1.893.516.387.129.731.258,1.075.387a14.662,14.662,0,0,1,1.463.559,26.336,26.336,0,0,1,6.754,4.259l-.387,1.42a20.492,20.492,0,0,0-.473,4.259,19.144,19.144,0,0,0,10.2,16.907,26.805,26.805,0,0,1-.99,5.55v.086c-.172.559-.344,1.076-.516,1.635,0,.043-.043.129-.043.172a14.939,14.939,0,0,1-.6,1.463l-.129.258c-.215.473-.43.9-.645,1.334a2.621,2.621,0,0,1-.172.344c-.215.387-.43.817-.689,1.2-.086.129-.172.3-.258.43a6.524,6.524,0,0,1-.473.688l-1.032,1.42-.516.645c-.473.559-.946,1.119-1.463,1.635l-.258.258-.129.129c-.516.473-.99.946-1.549,1.42h0c-.215.215-.473.387-.731.6-.387.3-.817.6-1.2.9-.172.129-.387.258-.559.387-.086.086-.215.129-.3.215l-1.29.774c-.043.043-.086.043-.129.086-.215.129-.387.215-.6.344-.645.344-1.334.645-1.979.946-.215.086-.473.172-.688.258-.516.215-1.075.387-1.635.559a4.682,4.682,0,0,1-.731.215,22.78,22.78,0,0,1-2.323.56,3.859,3.859,0,0,0-3.141,3.657v.086h0v12.089c-4-.946-8.217-1.764-12.6-2.366a142.3,142.3,0,0,0-37.6,0,121.4,121.4,0,0,0-12.6,2.366v-7.83c.688.043,1.42.086,2.108.086a3.829,3.829,0,1,0,0-7.658,27.074,27.074,0,0,1-19.144-46.161Z" transform="translate(-767.147 -324.345)"/>
      <path id="Path_992" data-name="Path 992" d="M920.4,713.8a38.861,38.861,0,0,0,12.39-7.916,3.767,3.767,0,0,0,.129-5.378,3.909,3.909,0,0,0-5.464-.129,31.885,31.885,0,0,1-9.981,6.367,31.615,31.615,0,0,1-23.145,0,31.608,31.608,0,0,1-9.981-6.367,3.857,3.857,0,0,0-5.421.129,3.766,3.766,0,0,0,.129,5.378A39.249,39.249,0,0,0,920.4,713.8Z" transform="translate(-835.989 -566.968)"/>
      <path id="Path_993" data-name="Path 993" d="M1031.529,423.961a3.837,3.837,0,0,0,5.378.645,3.884,3.884,0,0,0,.646-5.421l-2.237-2.8a3.83,3.83,0,1,0-6.023,4.732Z" transform="translate(-935.034 -379.951)"/>
      <path id="Path_994" data-name="Path 994" d="M999.213,469.9l3.055,1.85a3.844,3.844,0,0,0,4.044-6.539l-3.055-1.893a3.842,3.842,0,0,0-5.292,1.247A3.884,3.884,0,0,0,999.213,469.9Z" transform="translate(-914.592 -411.394)"/>
      <path id="Path_995" data-name="Path 995" d="M1062.658,476.216a3.844,3.844,0,0,0,5.377-.817l2.108-2.882a3.846,3.846,0,0,0-6.2-4.56l-2.108,2.882A3.844,3.844,0,0,0,1062.658,476.216Z" transform="translate(-956.483 -413.793)"/>
    </g>
  </g>
</svg>
