<svg xmlns="http://www.w3.org/2000/svg" width="8.518" height="16.444" viewBox="0 0 8.518 16.444">
  <g id="milk" transform="translate(-1726.74 116)">
    <path id="Path_3986" data-name="Path 3986" d="M29.914,12.352a.375.375,0,0,1-.375-.375V9.043a.375.375,0,1,1,.75,0v2.934a.375.375,0,0,1-.375.375" transform="translate(1699 -116)"/>
    <path id="Path_3987" data-name="Path 3987" d="M29.855,6.636a7.394,7.394,0,0,1-1.475-.154.375.375,0,0,1-.292-.443.368.368,0,0,1,.443-.292,6.233,6.233,0,0,0,2.034.095A6.637,6.637,0,0,0,31.946,5.5a9.345,9.345,0,0,1,1.609-.41A8.665,8.665,0,0,1,35.417,5a.375.375,0,0,1,.353.395.367.367,0,0,1-.4.353,8.35,8.35,0,0,0-1.707.084,8.6,8.6,0,0,0-1.487.381,7.306,7.306,0,0,1-1.523.374,6.436,6.436,0,0,1-.8.05" transform="translate(1699 -116)"/>
    <path id="Path_3988" data-name="Path 3988" d="M32,16.444c-2.444,0-4.149-.755-4.149-1.837-.01-.271-.24-6.978-.007-8.17A17.506,17.506,0,0,1,29.267,2.8a1.492,1.492,0,0,1-.781-1.292A1.567,1.567,0,0,1,30.1,0h3.789a1.569,1.569,0,0,1,1.619,1.508A1.491,1.491,0,0,1,34.729,2.8a17.382,17.382,0,0,1,1.424,3.638c.234,1.192,0,7.9-.007,8.183,0,1.069-1.7,1.824-4.146,1.824M30.1.75a.819.819,0,0,0-.868.758.786.786,0,0,0,.639.731.378.378,0,0,1,.247.2.382.382,0,0,1,.01.314A17.658,17.658,0,0,0,28.58,6.582c-.179.919-.045,6.1.021,8.013,0,.467,1.294,1.1,3.4,1.1s3.4-.632,3.4-1.087c.067-1.929.2-7.106.02-8.025A16.527,16.527,0,0,0,34,3.013c-.036,0-.07,0-.1,0H31.219a.375.375,0,0,1,0-.75h2.674a.82.82,0,0,0,.869-.758A.82.82,0,0,0,33.893.75Z" transform="translate(1699 -116)"/>
  </g>
</svg>
