<svg xmlns="http://www.w3.org/2000/svg" width="12.46" height="15.431" viewBox="0 0 12.46 15.431">
  <g id="soy" transform="translate(-1699 115.707)">
    <path id="Path_4003" data-name="Path 4003" d="M3.574,14.221a1.591,1.591,0,0,1-1.307-.608.376.376,0,0,1,.606-.444,1.125,1.125,0,0,0,1.491.053.375.375,0,1,1,.418.623,2.183,2.183,0,0,1-1.208.376" transform="translate(1699 -116)"/>
    <path id="Path_4004" data-name="Path 4004" d="M6.62,11.268a2.548,2.548,0,0,1-.349-.024.377.377,0,0,1-.315-.427.369.369,0,0,1,.427-.316,1.9,1.9,0,0,0,.957-.119,1.676,1.676,0,0,0,.723-.831.375.375,0,0,1,.729.178,2.394,2.394,0,0,1-1.1,1.316,2.507,2.507,0,0,1-1.07.223" transform="translate(1699 -116)"/>
    <path id="Path_4005" data-name="Path 4005" d="M10.2,6.639a.369.369,0,0,1-.245-.092.373.373,0,0,1-.038-.528,1.2,1.2,0,0,0,.26-.537,1.141,1.141,0,0,0-.1-.769.374.374,0,1,1,.654-.365,1.864,1.864,0,0,1,.182,1.285,1.927,1.927,0,0,1-.428.876.373.373,0,0,1-.283.13" transform="translate(1699 -116)"/>
    <path id="Path_4006" data-name="Path 4006" d="M9.882,8.546a.375.375,0,0,1-.1-.737,2.743,2.743,0,0,0,1.856-2.17,2.931,2.931,0,0,0-.37-2.2,1.932,1.932,0,0,0-1.229-.865,2.5,2.5,0,0,0-2.689,2.2A3.066,3.066,0,0,0,7.44,6.383a.375.375,0,1,1-.711.24,3.845,3.845,0,0,1-.109-2,3.23,3.23,0,0,1,3.573-2.778A2.69,2.69,0,0,1,11.9,3.029a3.684,3.684,0,0,1,.478,2.762,3.487,3.487,0,0,1-2.4,2.742.351.351,0,0,1-.1.013" transform="translate(1699 -116)"/>
    <path id="Path_4007" data-name="Path 4007" d="M4.238,10.264A.375.375,0,0,1,3.863,9.9,3.7,3.7,0,0,1,4.884,7.356,3.991,3.991,0,0,1,7.01,6.135a.375.375,0,1,1,.147.736,3.239,3.239,0,0,0-1.722.993A2.94,2.94,0,0,0,4.613,9.88a.375.375,0,0,1-.366.384Z" transform="translate(1699 -116)"/>
    <path id="Path_4008" data-name="Path 4008" d="M3.552,15.724A5.736,5.736,0,0,1,.109,14.046a.377.377,0,0,1-.1-.341c.027-.127.676-3.117,2.442-3.857a4.238,4.238,0,0,1,1.8-.334.378.378,0,0,1,.36.391.382.382,0,0,1-.391.359,3.483,3.483,0,0,0-1.483.275c-1.073.451-1.728,2.245-1.95,3.118.486.432,2.067,1.7,3.425,1.2A3.628,3.628,0,0,0,5.792,13.6c.049-.086.1-.182.146-.281a3,3,0,0,1,.979-1.265,4.727,4.727,0,0,1,.989-.505,2.419,2.419,0,0,0,1.118-.755,2.207,2.207,0,0,0,.568-2.014l-.023-.167c-.018-.126-.04-.3-.054-.36a.375.375,0,1,1,.734-.156c.016.073.042.27.063.415l.017.128A2.951,2.951,0,0,1,9.6,11.277a3.152,3.152,0,0,1-1.41.964,4.072,4.072,0,0,0-.845.428,2.31,2.31,0,0,0-.731.978c-.057.114-.111.223-.167.322a4.324,4.324,0,0,1-1.969,1.594,2.647,2.647,0,0,1-.922.161" transform="translate(1699 -116)"/>
    <path id="Path_4009" data-name="Path 4009" d="M10.743,2.689a.375.375,0,0,1-.374-.353l-.077-1.277-.286.013.056.941a.375.375,0,0,1-.351.4.354.354,0,0,1-.4-.352L9.234.736a.376.376,0,0,1,.358-.4L10.628.293a.364.364,0,0,1,.39.353l.1,1.646a.373.373,0,0,1-.352.4h-.022" transform="translate(1699 -116)"/>
  </g>
</svg>
