<svg xmlns="http://www.w3.org/2000/svg" width="20.224" height="14.106" viewBox="0 0 20.224 14.106">
  <g id="treenut" transform="translate(-1764.729 114.386)">
    <path id="Path_3995" data-name="Path 3995" d="M75.841,15.72c-5.576,0-10.112-3.164-10.112-7.052s4.536-7.054,10.112-7.054S85.953,4.778,85.953,8.668,81.417,15.72,75.841,15.72m0-13.356c-5.162,0-9.362,2.828-9.362,6.3s4.2,6.3,9.362,6.3,9.362-2.827,9.362-6.3-4.2-6.3-9.362-6.3" transform="translate(1699 -116)"/>
    <path id="Path_3996" data-name="Path 3996" d="M72.279,5.232a.263.263,0,0,0-.263-.263H69.488a.263.263,0,1,0,0,.526h1V8.53a.263.263,0,0,0,.526,0V5.495h1a.263.263,0,0,0,.262-.263" transform="translate(1699 -116)"/>
    <path id="Path_3997" data-name="Path 3997" d="M75.684,8.729a.261.261,0,0,0,.093-.357l-.758-1.293.042-.018A1.1,1.1,0,0,0,75.4,6.83a1.09,1.09,0,0,0-.771-1.861H73.325l-.021,0h0l-.012,0h0a.264.264,0,0,0-.27.262v3.3a.263.263,0,1,0,.525,0V7.149h.913l.872,1.487a.262.262,0,0,0,.358.093M73.541,6.624V5.494h1.09a.565.565,0,0,1,0,1.13Z" transform="translate(1699 -116)"/>
    <path id="Path_3998" data-name="Path 3998" d="M76.551,8.534h0a.26.26,0,0,0,.077.182.264.264,0,0,0,.18.077h2.01a.262.262,0,1,0,0-.524H77.076V7.037h1.372a.263.263,0,1,0,0-.525H77.076V5.495h1.7a.263.263,0,0,0,0-.525H76.814a.263.263,0,0,0-.263.263v3.3Z" transform="translate(1699 -116)"/>
    <path id="Path_3999" data-name="Path 3999" d="M82.085,8.267H80.343V7.036h1.372a.263.263,0,0,0,0-.525H80.343V5.495h1.7a.263.263,0,0,0,0-.525H80.081a.261.261,0,0,0-.263.262V8.539a.265.265,0,0,0,.258.253h2.01a.263.263,0,1,0,0-.525" transform="translate(1699 -116)"/>
    <path id="Path_4000" data-name="Path 4000" d="M73.715,9.75a.263.263,0,0,0-.263.263v2.532L71.358,9.852l-.009-.01-.022-.023-.016-.013-.024-.017-.019-.01a.159.159,0,0,0-.027-.012l-.02-.006a.15.15,0,0,0-.029-.006.146.146,0,0,0-.022,0h-.029l-.018,0-.033.005-.016,0-.033.012-.01.005A.324.324,0,0,0,71,9.8l-.015.012a.238.238,0,0,0-.023.022l-.012.015a.25.25,0,0,0-.018.026l-.01.018a.16.16,0,0,0-.012.027.083.083,0,0,0-.006.021.229.229,0,0,0-.007.028l0,.024V13.31a.262.262,0,1,0,.524,0V10.778L73.5,13.463a.267.267,0,0,0,.214.11.263.263,0,0,0,.263-.263v-3.3a.263.263,0,0,0-.263-.263" transform="translate(1699 -116)"/>
    <path id="Path_4001" data-name="Path 4001" d="M77.5,9.75a.263.263,0,0,0-.263.263v2.033a1,1,0,0,1-1,1h0a1,1,0,0,1-1-1V10.013a.263.263,0,1,0-.525,0v2.033a1.527,1.527,0,0,0,3.053,0V10.013A.262.262,0,0,0,77.5,9.75" transform="translate(1699 -116)"/>
    <path id="Path_4002" data-name="Path 4002" d="M81.295,9.75H78.766a.263.263,0,0,0,0,.525h1V13.31a.263.263,0,1,0,.525,0V10.275h1a.263.263,0,1,0,0-.525" transform="translate(1699 -116)"/>
  </g>
</svg>
